<svg width="495" height="222" viewBox="0 0 495 222" fill="none" xmlns="http://www.w3.org/2000/svg">
<path d="M124 3V200.557C124 201.346 123.536 202.061 122.815 202.383L90.6486 216.743C89.3257 217.334 87.8333 216.366 87.8333 214.917V143.729H10.6319C6.40007 143.729 4.08185 138.8 6.78087 135.54L117.588 1.72444C117.968 1.26558 118.532 1 119.128 1H122C123.105 1 124 1.89543 124 3Z" fill="#474747" stroke="#474747"/>
<path d="M147 130H124V145H147C148.105 145 149 144.105 149 143V132C149 130.895 148.105 130 147 130Z" fill="#474747" stroke="#474747"/>
<path d="M88 132V58L23 132H88Z" fill="#FAF1F1" stroke="#474747"/>
<path d="M469 6V203.557C469 204.346 468.536 205.061 467.815 205.383L435.649 219.743C434.326 220.334 432.833 219.366 432.833 217.917V146.729H355.632C351.4 146.729 349.082 141.8 351.781 138.54L462.588 4.72444C462.968 4.26558 463.532 4 464.128 4H467C468.105 4 469 4.89543 469 6Z" fill="#474747" stroke="#474747"/>
<path d="M492 133H469V148H492C493.105 148 494 147.105 494 146V135C494 133.895 493.105 133 492 133Z" fill="#474747" stroke="#474747"/>
<path d="M433 135V61L368 135H433Z" fill="#FAF1F1" stroke="#474747"/>
<ellipse cx="250.5" cy="112.5" rx="76.5" ry="108.5" fill="#474747"/>
<ellipse cx="250.5" cy="112" rx="40.5" ry="91" fill="#FAF1F1"/>
<path d="M188.5 49L193.486 64.8483C192.573 65.9158 191.449 69.0498 190.303 73.0441C186.088 87.7317 186.991 103.325 190.726 118.142L190.851 118.637C198.053 119.459 214.693 118.813 225.232 113.229C235.771 107.644 244.223 107.074 247.209 107.074C256.836 107.074 258.405 107.679 265.783 111.785C274.048 116.385 296.025 120.219 304.677 118.637L305.291 116.247C307.681 106.936 310.883 97.4233 309.272 87.9466C309.062 86.7107 308.893 85.8933 308.893 85.7891C308.893 85.4607 304.677 71.9655 302.569 65.2589L309 42.5L303 33.5L293.611 63.2059L269.37 76.3452L257.777 84.5573L247.237 93.5906C240.914 87.021 216.146 69.5018 201.391 62.3847L194 40L188.5 49Z" fill="#E84A5F" stroke="black"/>
<path d="M189.928 116.009C192.965 116.183 197.586 116.348 201.753 116.292C207.959 116.209 214.549 115.372 220.194 112.792V112.792C221.367 112.256 234.741 106.537 234.976 106.894C235.21 107.252 237.791 105.107 247.411 105.107C249.316 105.107 251.049 105.216 252.602 105.395C258.72 106.097 264.383 108.89 270.138 111.082L274.627 112.792C278.146 113.924 289.451 116.367 290.225 116.367C291.976 116.367 299.732 117.082 303.017 116.367C305.644 115.795 305.676 115.89 305.363 116.009" stroke="black" stroke-dasharray="3 3"/>
<path d="M212.363 114.038C217.288 112.405 227.589 108.107 229.972 107.126C233.533 105.661 241.581 103.453 247.386 103.453C253.19 103.453 259.875 105.622 263.97 107.126C268.068 108.631 279.047 113.657 282.213 113.657" stroke="black"/>
<path d="M189.928 114.663C195.953 115.074 208.96 115.485 212.788 113.841C210.307 110.417 205.558 102.091 206.408 96.1748" stroke="black"/>
<path d="M187.82 92L189.168 89.1855L196.76 66.1377M193.371 64.903L196.76 63.8409M197.311 63.6683L201.252 62.4336L197.574 63.6683L196.76 66.1377M197.311 63.6683L196.76 66.1377M197.311 63.6683L196.76 63.8409M196.76 63.8409L197.016 65.5151C197.038 65.6543 197.088 65.7874 197.163 65.9061V65.9061C197.26 66.0578 197.396 66.1808 197.556 66.2626L208.607 71.8997C217.889 76.8385 238.554 89.1032 246.96 98.6516C259.219 88.9112 286.363 68.7717 296.871 66.1377M296.871 66.1377V64.2735M296.871 66.1377V65.3146M302.125 65.7261L296.871 64.2735M296.871 64.2735L293.193 63.2567L296.871 64.4914V65.3146M296.871 65.3146V65.3146C296.871 66.1309 297.019 66.9384 297.305 67.7029C301.597 79.1559 309.003 100.394 308.429 102.356C307.712 104.813 306.565 114.243 304.989 115.066C303.412 115.889 282.369 114.858 281.844 113.623C281.318 112.388 287.94 108.529 288.465 96.1822" stroke="black"/>
<path d="M187.82 90C190.518 80.7928 194.114 68.5785 195.526 65.2665C195.681 64.9029 195.413 64.4238 195.018 64.4237V64.4237C194.811 64.4237 194.63 64.2812 194.582 64.0793L191 49L193.5 44.5L199.126 63.3285L197.845 63.5774C197.484 63.6475 197.204 63.9311 197.137 64.2922V64.2922C197.064 64.6921 197.259 65.0858 197.627 65.2586C210.569 71.335 237.602 85.6287 247.031 96.5511C256.033 88.7627 278.639 71.6524 297.05 65.519V65.0709C297.05 64.5792 296.725 64.1466 296.253 64.009V64.009C295.659 63.8357 295.323 63.2085 295.507 62.6176L303.5 37L307 41.5L299.633 64.7888V64.7888C299.105 64.7067 298.682 65.2186 298.863 65.721C302.782 76.5692 309.539 96.5594 308.087 97.8288" stroke="black" stroke-dasharray="3 3"/>
<path d="M247.076 107.091V93.5286" stroke="black"/>
<path d="M189 110.373C187.133 110.634 185.24 110.92 183.152 110.988C181.648 111.037 180.235 110.927 178.851 110.763C177.16 110.563 175.483 110.312 174 110" stroke="#E84A5F" stroke-linecap="round"/>
<path d="M327 108.373C324.635 108.634 322.238 108.92 319.593 108.988C317.688 109.037 315.898 108.927 314.144 108.763C312.003 108.563 309.878 108.312 308 108" stroke="#E84A5F" stroke-linecap="round"/>
<path d="M188 102.373C186.258 102.634 184.491 102.92 182.542 102.988C181.139 103.037 179.819 102.927 178.527 102.763C176.95 102.563 175.384 102.312 174 102" stroke="#E84A5F" stroke-linecap="round"/>
<path d="M327 101.373C324.76 101.634 322.488 101.92 319.983 101.988C318.178 102.037 316.482 101.927 314.821 101.763C312.792 101.563 310.78 101.312 309 101" stroke="#E84A5F" stroke-linecap="round"/>
<path d="M183.142 162.004C182.129 162.336 185.459 175.181 192 182.5C220.909 182.5 240.61 208.239 246 221H256.5C273.598 189.488 298.048 182.632 308.5 183C314.539 177.052 317.497 166.474 318 163.5C258.664 191.004 184.407 161.59 183.142 162.004Z" fill="#E84A5F" stroke="black"/>
<path d="M183.5 163.5C209.333 173.833 272.3 189 317.5 167" stroke="black" stroke-dasharray="3 3"/>
<path d="M189.5 179C205 179.667 238.4 188.9 248 220.5" stroke="black" stroke-dasharray="3 3"/>
<path d="M254.5 221C256.667 209.167 271 184.3 311 179.5" stroke="black" stroke-dasharray="3 3"/>
</svg>
