<svg width="643" height="564" viewBox="0 0 643 564" fill="none" xmlns="http://www.w3.org/2000/svg">
<path d="M30.9141 543.625C51.184 545.107 85.4406 546.494 109.882 544.611C128.699 543.161 147.126 535.252 165.114 529.542C173.859 526.767 181.417 524.167 183.677 522.845C189.598 519.382 257.097 482.439 258.282 484.748C259.466 487.057 272.492 473.203 321.044 473.203C349.926 473.203 370.995 479.586 382.984 485.233C389.337 488.225 395.277 492.071 401.59 495.148L458.412 522.845C476.175 530.157 533.232 545.934 537.137 545.934C545.975 545.934 585.122 550.552 601.701 545.934C614.964 542.24 615.122 542.856 613.543 543.625" stroke="#F4DADA" stroke-dasharray="3 3"/>
<path d="M144.156 530.893C169.014 520.347 221.006 492.582 233.032 486.249C251.004 476.785 291.627 462.52 320.924 462.52C350.221 462.52 383.962 476.535 404.63 486.249C425.31 495.969 480.726 528.434 496.706 528.434" stroke="#F4DADA"/>
<path d="M30.9141 534.93C61.3243 537.583 126.975 540.237 146.294 529.622C133.772 507.508 109.802 453.727 114.095 415.513" stroke="#F4DADA"/>
<path d="M1 16.9128L48.8755 213.171C37.3044 230.478 19.0331 331.879 9.11131 394.162C7.22346 406.013 7.50544 418.102 9.8248 429.876L35.5768 560.602C71.9267 565.906 155.909 561.734 209.104 525.665C262.299 489.596 304.956 485.91 320.028 485.91C368.618 485.91 376.536 489.818 413.773 516.34C455.492 546.054 566.415 570.819 610.083 560.602L629.001 466.282C630.569 458.464 633.292 450.903 634.903 443.094C641.829 409.505 631.361 350.784 631.361 348.43C631.361 346.309 610.083 259.142 599.444 215.823L642 16.9128L604.763 1L554.228 202.563L431.88 287.431L373.365 340.474L320.17 398.821C288.253 356.387 163.245 243.229 88.7718 197.258L38.2365 1L1 16.9128Z" stroke="#F4DADA"/>
<path d="M13.8184 428.851L27.077 370.367L65.3988 221.499M48.2909 213.524L65.3988 206.663M68.1788 205.548L88.0668 197.573L69.5047 205.548L65.3988 221.499M68.1788 205.548L65.3988 221.499M68.1788 205.548L65.3988 206.663M65.3988 206.663L66.7155 217.689C66.8065 218.451 67.028 219.191 67.3704 219.878V219.878C67.8998 220.939 68.7024 221.84 69.6957 222.489L125.191 258.716C172.038 290.616 276.34 369.836 318.767 431.51C380.641 368.595 517.647 238.512 570.682 221.499M570.682 221.499V209.458M570.682 221.499V216.182M597.199 218.84L570.682 209.458M570.682 209.458L552.12 202.89L570.682 210.865V216.182M570.682 216.182V216.182C570.682 221.471 571.441 226.715 572.927 231.792C594.595 305.811 631.91 442.775 629.02 455.435C625.396 471.306 619.608 532.215 611.653 537.532C603.698 542.849 497.486 536.186 494.835 528.211C492.183 520.236 525.602 495.311 528.254 415.56" stroke="#F4DADA"/>
<path d="M9.78065 417.944C24.0641 355.564 51.4955 238.91 59.7318 214.789C60.4108 212.8 58.9238 210.43 56.8227 210.429V210.429C55.6475 210.429 54.6251 209.625 54.3485 208.483L7.41016 14.7058L27.5593 5.27338L77.3396 203.355L71.9214 204.702C69.4644 205.313 67.6223 207.352 67.2624 209.858V209.858C66.9052 212.346 68.0239 214.769 70.1776 216.065C135.656 255.45 271.636 347.54 319.13 417.944C364.564 367.637 478.664 257.12 571.587 217.504V213.665C571.587 211.01 569.938 208.635 567.451 207.707V207.707C564.409 206.573 562.711 203.329 563.511 200.183L613.07 5.27338L635.59 14.7058L584.625 212.787V212.787C581.917 212.249 579.591 214.745 580.342 217.402C600.059 287.135 634.669 417.942 627.293 426.197" stroke="#F4DADA" stroke-dasharray="3 3"/>
<path d="M319.363 486.023V398.42" stroke="#F4DADA"/>
</svg>
