<svg width="20" height="20" viewBox="0 0 20 20" fill="none" xmlns="http://www.w3.org/2000/svg">
<path d="M11.4887 10L19.6917 1.79695C20.1028 1.38586 20.1028 0.719376 19.6917 0.308321C19.2806 -0.102774 18.6141 -0.102774 18.203 0.308321L9.99998 8.51137L1.79695 0.308321C1.38586 -0.102774 0.719373 -0.102774 0.30832 0.308321C-0.102734 0.719415 -0.102773 1.3859 0.30832 1.79695L8.51135 10L0.30832 18.2031C-0.102773 18.6142 -0.102773 19.2806 0.30832 19.6917C0.719412 20.1028 1.3859 20.1027 1.79695 19.6917L9.99998 11.4886L18.203 19.6917C18.6141 20.1028 19.2806 20.1027 19.6916 19.6917C20.1027 19.2806 20.1027 18.6141 19.6916 18.2031L11.4887 10Z" fill="#474747"/>
</svg>
