<svg width="29" height="29" viewBox="0 0 29 29" fill="none" xmlns="http://www.w3.org/2000/svg">
<path d="M1.53516 8.07047C2.45319 6.20083 3.75029 4.6206 5.38499 3.30665C7.60012 1.51804 10.141 0.441405 12.9899 0.111469C16.3363 -0.276352 19.4813 0.343003 22.3894 2.04478C23.112 2.46733 23.7872 2.94777 24.4328 3.46872C24.5927 3.59606 24.5749 3.67131 24.4387 3.79866C23.1179 5.08367 21.7971 6.36869 20.4882 7.66528C20.3342 7.81578 20.2513 7.8042 20.0854 7.68265C16.2474 4.79426 10.6504 5.57568 7.78965 9.396C7.28621 10.0675 6.87754 10.791 6.59324 11.5782C6.56955 11.6477 6.52217 11.7114 6.48663 11.7808C5.72259 11.2136 4.95262 10.6463 4.1945 10.0732C3.30608 9.40758 2.41766 8.74192 1.53516 8.07047Z" fill="#CD9D9D"/>
<path d="M6.4867 17.2101C6.74138 17.76 6.9546 18.3331 7.27443 18.8483C8.61891 21.0015 10.5379 22.3849 13.0669 22.877C15.3472 23.3227 17.5387 23.0217 19.5821 21.9045C19.6531 21.8698 19.7242 21.835 19.7894 21.8003C19.8249 21.835 19.8545 21.8756 19.89 21.9045C21.4181 23.0622 22.9521 24.2199 24.4802 25.3775C23.7458 26.0895 22.9107 26.6625 22.0223 27.1603C19.4458 28.5959 16.6562 29.1747 13.7185 28.9547C10.0582 28.6769 6.90129 27.2645 4.29525 24.7177C3.15215 23.6005 2.21042 22.3386 1.5293 20.8973C2.16304 20.4227 2.79678 19.9538 3.43052 19.4792C4.44925 18.7209 5.46797 17.9684 6.4867 17.2101Z" fill="#CD9D9D"/>
<path d="M24.4866 25.3775C22.9585 24.2198 21.4245 23.0621 19.8964 21.9045C19.8609 21.8755 19.8254 21.835 19.7957 21.8003C20.3229 21.4009 20.8619 21.0131 21.2942 20.5037C22.0168 19.6586 22.4966 18.7035 22.7453 17.6327C22.7749 17.4995 22.7512 17.4532 22.615 17.459C22.5439 17.4648 22.4788 17.459 22.4077 17.459C19.9912 17.459 17.5688 17.4532 15.1523 17.4648C14.8857 17.4648 14.8265 17.3953 14.8324 17.1464C14.8443 15.4678 14.8443 13.7892 14.8324 12.1106C14.8324 11.8964 14.8917 11.8385 15.1108 11.8385C19.5411 11.8443 23.9713 11.8443 28.4075 11.8385C28.5971 11.8385 28.6741 11.8848 28.7214 12.0816C29.0827 13.6734 29.059 15.271 28.8399 16.8802C28.6622 18.1652 28.3424 19.4097 27.8508 20.6137C27.1223 22.3907 26.0502 23.942 24.6406 25.2733C24.5873 25.3138 24.534 25.3428 24.4866 25.3775Z" fill="#CD9D9D"/>
<path d="M6.48683 17.2103C5.4681 17.9685 4.44938 18.721 3.43065 19.4793C2.79691 19.9482 2.16317 20.4228 1.52943 20.8975C1.03784 20.0061 0.718003 19.0625 0.457399 18.0901C-0.0401175 16.2089 -0.117114 14.2987 0.155335 12.3828C0.368557 10.8778 0.812768 9.43071 1.52943 8.07623C2.41785 8.74189 3.30035 9.41335 4.18878 10.079C4.95282 10.6521 5.71686 11.2193 6.48091 11.7866C6.3506 12.4059 6.167 13.0137 6.10777 13.6504C6.00116 14.8081 6.11369 15.9368 6.45129 17.0482C6.47498 17.0945 6.48091 17.1524 6.48683 17.2103Z" fill="#CD9D9D"/>
</svg>
