<svg width="29" height="29" viewBox="0 0 29 29" fill="none" xmlns="http://www.w3.org/2000/svg">
<path d="M21.1499 0H7.85002C3.52145 0 0 3.52145 0 7.85002V21.1502C0 25.4785 3.52145 29 7.85002 29H21.1502C25.4785 29 29 25.4785 29 21.1502V7.85002C29 3.52145 25.4785 0 21.1499 0V0ZM27.2999 21.1502C27.2999 24.5411 24.5411 27.2999 21.1499 27.2999H7.85002C4.45889 27.2999 1.7001 24.5411 1.7001 21.1502V7.85002C1.7001 4.45889 4.45889 1.7001 7.85002 1.7001H21.1502C24.5411 1.7001 27.2999 4.45889 27.2999 7.85002V21.1502Z" fill="#E84A5F"/>
<path d="M14.4998 6.5708C10.1274 6.5708 6.57031 10.1279 6.57031 14.5003C6.57031 18.8726 10.1274 22.4297 14.4998 22.4297C18.8721 22.4297 22.4292 18.8726 22.4292 14.5003C22.4292 10.1279 18.8721 6.5708 14.4998 6.5708ZM14.4998 20.7296C11.065 20.7296 8.27041 17.9352 8.27041 14.5003C8.27041 11.0655 11.065 8.2709 14.4998 8.2709C17.9347 8.2709 20.7291 11.0655 20.7291 14.5003C20.7291 17.9352 17.9347 20.7296 14.4998 20.7296Z" fill="#E84A5F"/>
<path d="M22.6204 3.75439C21.3283 3.75439 20.2773 4.80556 20.2773 6.09745C20.2773 7.38957 21.3283 8.44073 22.6204 8.44073C23.9125 8.44073 24.9637 7.38957 24.9637 6.09745C24.9637 4.80534 23.9125 3.75439 22.6204 3.75439ZM22.6204 6.74041C22.266 6.74041 21.9774 6.4519 21.9774 6.09745C21.9774 5.74279 22.266 5.4545 22.6204 5.4545C22.9751 5.4545 23.2636 5.74279 23.2636 6.09745C23.2636 6.4519 22.9751 6.74041 22.6204 6.74041Z" fill="#E84A5F"/>
</svg>
