<svg width="33" height="28" viewBox="0 0 33 28" fill="none" xmlns="http://www.w3.org/2000/svg">
<path d="M32.4904 0.76657C32.0873 0.272188 31.4836 0 30.7902 0C30.4133 0 30.014 0.0795354 29.6036 0.236839L1.66979 10.9307C0.187368 11.498 -0.0122849 12.3495 0.000555332 12.8065C0.0133956 13.2635 0.260885 14.1023 1.77301 14.5848C1.78208 14.5876 1.79114 14.5903 1.8002 14.5929L7.59442 16.2558L10.7279 25.242C11.1552 26.4671 12.1142 27.2281 13.231 27.2281C13.9352 27.2281 14.6279 26.9322 15.2341 26.3727L18.8181 23.0632L24.0163 27.261C24.0168 27.2615 24.0176 27.2617 24.0181 27.2622L24.0674 27.3021C24.072 27.3056 24.0768 27.3094 24.0813 27.313C24.6591 27.7624 25.2898 27.9997 25.9059 28H25.9061C27.1098 28 28.0683 27.1064 28.3475 25.7238L32.9244 3.05896C33.1082 2.14922 32.9541 1.33518 32.4904 0.76657ZM9.5328 15.9399L20.7116 10.2126L13.7509 17.6301C13.6369 17.7515 13.5561 17.9003 13.5163 18.0621L12.1741 23.5145L9.5328 15.9399ZM13.9242 24.9461C13.8778 24.9888 13.8313 25.0269 13.7847 25.062L15.0299 20.004L17.2951 21.8334L13.9242 24.9461ZM31.0294 2.6739L26.4525 25.339C26.4084 25.5559 26.2677 26.0606 25.9059 26.0606C25.7271 26.0606 25.5025 25.9629 25.2727 25.7854L19.3823 21.0289C19.3815 21.0282 19.3805 21.0274 19.3795 21.0269L15.8746 18.1964L25.9406 7.46976C26.2629 7.12637 26.2921 6.60043 26.0098 6.2232C25.7274 5.84598 25.2155 5.72731 24.7968 5.94193L8.24097 14.4242L2.36794 12.739L30.2932 2.04848C30.5291 1.95809 30.6938 1.93915 30.7902 1.93915C30.8494 1.93915 30.9546 1.94622 30.9936 1.99445C31.045 2.05732 31.1104 2.27168 31.0294 2.6739Z" fill="#E84A5F"/>
</svg>
