<svg width="22" height="25" viewBox="0 0 22 25" fill="none" xmlns="http://www.w3.org/2000/svg">
<path d="M15.0097 9.61133L14.0934 20.4087C14.0525 20.8921 14.7862 20.9581 14.8276 20.4703L15.7439 9.6729C15.761 9.47138 15.6105 9.29424 15.4078 9.27719C15.2048 9.2602 15.0268 9.40976 15.0097 9.61133Z" fill="#FAF1F1"/>
<path d="M6.59132 9.27718C6.38862 9.29422 6.23818 9.47137 6.25522 9.67288L7.17152 20.4702C7.21297 20.9587 7.94661 20.8921 7.90565 20.4087L6.98935 9.61131C6.97231 9.40975 6.79397 9.26029 6.59132 9.27718Z" fill="#FAF1F1"/>
<path d="M10.6328 9.64209V20.4395C10.6328 20.6417 10.7977 20.8057 11.0012 20.8057C11.2047 20.8057 11.3695 20.6417 11.3695 20.4395V9.64209C11.3695 9.43984 11.2047 9.27588 11.0012 9.27588C10.7977 9.27588 10.6328 9.43984 10.6328 9.64209Z" fill="#FAF1F1"/>
<path d="M20.3008 2.82871H14.5082V1.54155C14.5082 0.691553 13.8126 0 12.9576 0H9.04234C8.18734 0 7.49171 0.691553 7.49171 1.54155V2.82871H1.6991C0.762222 2.82871 0 3.58647 0 4.51787C0 5.44927 0.762222 6.20703 1.6991 6.20703H2.09531L3.47339 22.4455C3.59588 23.8887 4.80972 25 6.26884 25H15.7311C17.188 25 18.4039 23.891 18.5266 22.4455L18.7176 20.1942C18.7347 19.9927 18.5842 19.8155 18.3815 19.7985C18.1783 19.7812 18.0006 19.9311 17.9835 20.1326L17.7924 22.3839C17.7028 23.4402 16.7974 24.2676 15.7311 24.2676H6.26884C5.20259 24.2676 4.29715 23.4402 4.20752 22.3839L2.83464 6.20703H3.9253C4.12878 6.20703 4.29366 6.04307 4.29366 5.84082C4.29366 5.63857 4.12878 5.47461 3.9253 5.47461C3.11838 5.47461 2.16687 5.47461 1.6991 5.47461C1.16845 5.47461 0.73673 5.04541 0.73673 4.51787C0.73673 3.99033 1.16845 3.56113 1.6991 3.56113H20.3008C20.8315 3.56113 21.2632 3.99033 21.2632 4.51787C21.2632 5.04541 20.8315 5.47461 20.3008 5.47461C19.7287 5.47461 6.88558 5.47461 5.64841 5.47461C5.44493 5.47461 5.28005 5.63857 5.28005 5.84082C5.28005 6.04307 5.44493 6.20703 5.64841 6.20703H19.1653L18.1285 18.4241C18.1114 18.6256 18.2619 18.8027 18.4646 18.8198C18.4751 18.8207 18.4856 18.8211 18.496 18.8211C18.6854 18.8211 18.8464 18.6767 18.8627 18.4856L19.9047 6.20703H20.3009C21.2377 6.20703 22 5.44927 22 4.51787C22 3.58647 21.2377 2.82871 20.3008 2.82871ZM13.7715 2.82871H8.22844V1.54155C8.22844 1.09541 8.59357 0.732422 9.04234 0.732422H12.9576C13.4064 0.732422 13.7715 1.09541 13.7715 1.54155V2.82871H13.7715Z" fill="#FAF1F1"/>
</svg>
